Patient4_TMGait_0pt5_01_right_29_EMG.mot
version=1
nRows=23
nColumns=33
inDegrees=no
endheader
time	1LAddLong	2LGlutMax	3LGlutMed	4LIliopsoas	5LSemiMemb	6LBicFemLong	7LRecFem	8LVastMed	9LVastLat	10LGasMed	11LTibAnt	12lTibPost	13LPeroneusLong	14LSol	15LExtDigLong	16LFlexDigLong	17RAddLong	18RGlutMax	19RGlutMed	20RIliopsoas	21RSemiMemb	22RBicFemLong	23RRecFem	24RVastMed	25RVastLat	26RGasMed	27RTibAnt	28RTibPost	29RPeroneusLong	30RSol	31RExtDigLong	32RFlexDigLong
38.05	0.013733	-0.066986	0.031433	-0.007019	0.014496	0.063019	-0.036011	0.006104	0.12726	-0.28229	0.16617	-0.016327	-0.027771	-0.27878	-0.1503	0.015259	-0.029907	-0.23025	0.74768	-0.014801	0.085297	0.012054	-0.22507	0.040588	0.021667	-0.008392	0.4361	-0.009308	-0.003357	-0.19058	-0.001526	0.003662
38.051	0.010071	-0.047455	-0.059204	0.01358	0.00412	-0.15366	0.011292	-0.007629	0.26627	-0.085907	0.25284	-0.0177	-0.31464	-0.25772	-0.16525	0.000153	-0.03952	-0.16556	1.0135	-0.077972	0.085144	0.031586	-0.1091	0.063629	0.050354	0.000458	0.29999	-0.006866	0.049591	-0.20142	-0.000305	-0.004883
38.052	0.020447	-0.024109	-0.11108	-0.00061	0.062866	-0.3392	0.060883	-0.020142	0.13672	-0.022583	0.10407	-0.009918	-0.35645	-0.15732	-0.062714	-0.01358	-0.058899	-0.14603	0.66513	-0.067596	0.095673	0.057983	0.02594	0.097198	0.028992	-0.00412	0.79788	-0.010834	0.005188	-0.17059	-0.005188	0.001526
38.053	0.021667	-0.057831	-0.1239	0.002899	0.027924	-0.73563	0.045624	-0.017242	0.08606	-0.002747	-0.10895	-0.008087	-0.14465	0.067139	0.003662	-0.013123	-0.041962	-0.18524	0.6073	-0.08667	0.10819	0.048523	0.052948	0.062103	0.002289	-0.002136	1.1086	-0.01297	-0.17639	-0.23926	-0.007324	-0.001221
38.054	0.014954	-0.11581	-0.10544	0.019073	0.00946	-0.65124	0.041504	-0.007324	0.042572	0.055237	-0.19699	-0.015411	0.96619	0.13031	0.052338	-0.005035	-0.025787	-0.17502	0.58548	-0.041809	0.093384	0.052795	0.35584	0.06485	-0.015869	0.000763	0.33249	-0.015106	-0.1651	-0.22461	-0.005798	0.007629
38.055	0.012665	-0.0737	0.1268	0.014954	0.012054	-0.35645	0.058594	-0.001526	0.06012	0.093536	-0.22476	-0.012512	0.71213	0.23789	0.032959	-0.016785	-0.04303	-0.20172	0.60837	0.11719	0.10559	0.067749	0.46845	0.0177	0.018005	0.002441	-0.2182	-0.009918	-0.028076	-0.19043	-0.006409	0.01709
38.056	0.012665	-0.083466	0.10284	0.000916	-0.000916	-0.046387	0.052643	-0.004578	0.04303	0.042572	-0.13809	-0.019073	-0.092773	0.30991	-0.036163	0.001068	-0.055389	-0.19608	0.29022	0.33264	0.13382	0.098572	0.56595	0.051117	0.02594	0.006714	0.37796	-0.011749	-0.078278	-0.056152	-0.003815	0.010376
38.057	0.007324	-0.072327	0.12878	0.019226	0.041046	-0.060272	0.045624	-0.002136	0.021515	0.094757	0.019073	-0.022583	-0.6105	0.22614	-0.053406	0.001221	-0.082855	-0.19669	0.29526	0.21927	0.15457	0.10742	0.59784	-0.022888	0.007935	-0.008392	0.85556	-0.011902	-0.18112	0.13718	-0.005646	0.009003
38.058	0.007935	-0.016174	0.022125	0.018616	0.061951	-0.16998	0.031281	-0.000458	0.04425	0.13657	0.076294	0.00473	-0.54169	0.26443	0.10742	0.001373	-0.070648	-0.15274	0.57892	0.017853	0.15533	0.080109	1.1595	-0.088806	-0.004272	-0.012207	0.27725	-0.014954	-0.13763	0.26276	-0.004578	0.003204
38.059	0.006866	0.005341	-0.058441	0.037384	0.03891	-0.073547	0.032043	-0.006104	0.058136	0.039063	0.069427	0.00412	0.24002	0.23697	0.10223	-0.00824	0.085602	-0.087585	0.62027	-0.020294	0.14313	0.052185	1.2198	-0.016327	-0.011597	-0.010986	-0.43152	-0.011292	0.007324	0.3479	-0.001221	-0.00061
38.06	-0.005341	0.029449	-0.19241	0.015869	0.043945	-0.028992	0.028076	-0.004578	0.079803	-0.14603	0.007782	0.001984	0.05661	0.079803	0.04364	-0.018768	0.15274	-0.079803	0.62698	-0.11185	0.13245	-0.023193	0.71472	-0.051117	-0.031433	-0.014648	-0.63126	-0.012512	0.10056	0.22797	-0.003967	-0.006866
38.061	-0.011749	0.11108	-0.21042	-0.008392	0.018311	0.026703	0.014343	-0.00351	0.047455	-0.23499	-0.037231	0.001831	-0.067291	0.11536	-0.049438	-0.016022	0.15564	-0.064697	0.66009	-0.19073	0.11658	-0.068054	0.17578	-0.16159	-0.043945	-0.015106	-0.16632	-0.010681	0.047607	0.1413	-0.001678	-0.010376
38.062	-0.01709	0.12543	0.016937	-0.014038	-0.072021	0.092621	0.062561	0	0.016785	-0.21683	-0.006409	0.001221	0.088196	0.23377	-0.018463	-0.019989	0.19257	-0.006409	0.85159	-0.14175	0.088196	-0.08255	-0.15961	-0.22003	-0.057068	-0.009918	-0.30411	-0.002899	0.074158	0.053253	-0.004425	-0.012207
38.063	-0.017853	0.15732	0.10361	-0.01236	-0.16678	0.14069	0.078583	0.003357	-0.006409	-0.36972	-0.071869	0.007935	0.70892	0.14694	-0.014191	0.005951	0.15625	0.007172	1.1804	-0.054321	0.07431	-0.11429	-0.35523	-0.23254	-0.086212	-0.009003	-0.83099	-0.006256	0.12787	0.041809	-0.003357	-0.014954
38.064	0.019073	0.18524	0.058441	-0.012665	-0.13336	-0.092773	0.071869	-0.003815	-0.004272	-0.21301	-0.053864	-0.000305	-0.10666	-0.005188	-0.062256	-0.005188	0.11612	0.019531	0.79865	-0.005798	0.055542	-0.13641	-0.55313	-0.21362	-0.11246	-0.014343	-0.81512	0.006561	0.071106	0.022278	0.000153	-0.019226
38.065	0.035095	0.19867	0.15503	-0.008545	0.15762	-0.23544	0.058899	-0.004578	-0.027771	-0.11383	0.015259	0.007324	-1.2755	0.12619	0.037079	-0.014191	0.049896	0.070648	0.50812	-0.097504	0.062561	-0.12039	-0.64209	-0.23682	-0.10162	-0.011749	-0.25879	-0.00473	0.028687	-0.09079	-0.001526	-0.013275
38.066	0.025635	0.19196	0.13519	0.005341	0.19836	0.038605	0.058899	0.00824	-0.03952	0.14801	0.068359	0.000458	-0.78247	0.025177	0.009613	-0.002136	0.006409	0.041656	0.62241	-0.3038	0.056	-0.10498	-0.68863	-0.30151	-0.070038	0.000763	-0.082397	-0.000305	0.030518	-0.16098	-0.005188	-0.009766
38.067	0.003357	0.20584	0.083313	0.006256	0.11154	0.23529	0.070038	0.011902	-0.063477	0.45746	0.074921	-0.008545	-0.028381	-0.1564	-0.17425	-0.012207	0.020447	0.030823	0.76111	-0.26535	0.066986	-0.084229	-0.93842	-0.25207	-0.062256	0.00412	-0.010681	-0.002441	0.079193	-0.088501	-0.002899	-0.010376
38.068	-0.007782	0.18265	0.066986	0.026398	0.055542	0.20584	0.1033	0.011292	-0.067139	0.081329	0.095673	-0.01297	0.007172	-0.15732	0.37994	-0.007324	0.028076	-0.015717	0.55756	-0.23789	0.061646	-0.080566	-1.0526	-0.22751	-0.05661	0.001526	0.25223	-0.004883	0.014801	0.028229	-0.001068	-0.014343
38.069	0.001831	0.17364	-0.068359	0.025177	0.039215	0.087128	0.078278	0.005798	-0.046387	-0.56351	0.046997	-0.015564	0.11795	-0.15564	0.13077	-0.001678	0.027008	-0.000458	0.32379	0.012817	0.068665	-0.075378	-0.90363	-0.16373	-0.055542	-0.007172	0.15228	-0.002594	-0.082092	0.092316	-0.002594	-0.014343
38.07	0.005035	0.13168	-0.082397	0.022125	0.017395	0.076904	0.047455	-0.002441	0.019073	-0.080872	0.089874	0.002289	-0.15503	-0.14099	0.27817	-0.003204	0.012665	-0.036316	0.19806	0.28946	0.093079	-0.024719	-0.58807	-0.14236	-0.049286	-0.010681	-0.18585	-0.000458	-0.13153	0.10391	-0.004883	-0.016022
38.071	-0.00473	0.12421	0.009766	0.020599	-0.02182	0.14893	0.080872	0.008392	0.065613	0.64194	0.12054	0.013428	-0.18723	-0.026398	-0.007477	-0.011749	-0.02121	0.036163	0.31021	0.30197	0.10193	-0.041199	-0.26932	-0.12772	-0.028534	-0.004272	-0.39703	-0.000458	-0.083923	0.021973	-0.005035	-0.014496
38.072	-0.00824	0.095062	-0.061035	0.024872	-0.048065	0.11108	0.11276	0.018005	0.01236	0.77484	-0.10544	0.014801	0.56503	0.056152	-0.2417	0.015259	-0.067902	0.019836	0.30029	0.13855	0.10346	-0.016022	0.037384	-0.043182	-0.020599	-0.000916	-0.30685	0.002136	-0.000916	-0.057373	-0.004272	-0.013428
